<?xml version="1.0" encoding="UTF-8"?>
<svg xmlns="http://www.w3.org/2000/svg" xmlns:xlink="http://www.w3.org/1999/xlink" width="175px" height="67px" viewBox="0 0 174 67" version="1.1">
<defs>
<linearGradient id="linear0" gradientUnits="userSpaceOnUse" x1="145.6009" y1="63.2722" x2="235.9584" y2="63.2722" gradientTransform="matrix(0.54375,0,0,0.544715,0,0.0544715)">
<stop offset="0" style="stop-color:rgb(33.72549%,31.372549%,60.392157%);stop-opacity:1;"/>
<stop offset="1" style="stop-color:rgb(91.372549%,30.196078%,37.254902%);stop-opacity:1;"/>
</linearGradient>
<linearGradient id="linear1" gradientUnits="userSpaceOnUse" x1="10.4336" y1="56.3976" x2="100.7907" y2="56.3976" gradientTransform="matrix(0.54375,0,0,0.544715,0,0.0544715)">
<stop offset="0" style="stop-color:rgb(18.039216%,66.666667%,88.235294%);stop-opacity:1;"/>
<stop offset="1" style="stop-color:rgb(29.019608%,38.823529%,66.27451%);stop-opacity:1;"/>
</linearGradient>
<linearGradient id="linear2" gradientUnits="userSpaceOnUse" x1="105.687" y1="73.7963" x2="140.3421" y2="73.7963" gradientTransform="matrix(0.54375,0,0,0.544715,0,0.0544715)">
<stop offset="0" style="stop-color:rgb(29.019608%,38.823529%,66.27451%);stop-opacity:1;"/>
<stop offset="1" style="stop-color:rgb(33.72549%,31.372549%,60.392157%);stop-opacity:1;"/>
</linearGradient>
<linearGradient id="linear3" gradientUnits="userSpaceOnUse" x1="105.687" y1="21.6719" x2="140.3421" y2="21.6719" gradientTransform="matrix(0.54375,0,0,0.544715,0,0.0544715)">
<stop offset="0" style="stop-color:rgb(29.019608%,38.823529%,66.27451%);stop-opacity:1;"/>
<stop offset="1" style="stop-color:rgb(33.72549%,31.372549%,60.392157%);stop-opacity:1;"/>
</linearGradient>
<linearGradient id="linear4" gradientUnits="userSpaceOnUse" x1="105.3473" y1="21.6719" x2="140.6815" y2="21.6719" gradientTransform="matrix(0.54375,0,0,0.544715,0,0.0544715)">
<stop offset="0" style="stop-color:rgb(29.019608%,38.823529%,66.27451%);stop-opacity:1;"/>
<stop offset="1" style="stop-color:rgb(33.72549%,31.372549%,60.392157%);stop-opacity:1;"/>
</linearGradient>
</defs>
<g id="surface1">
<path style=" stroke:none;fill-rule:nonzero;fill:rgb(91.372549%,30.196078%,37.254902%);fill-opacity:1;" d="M 168.34375 60.464844 L 168.34375 64.765625 L 148.933594 64.765625 L 148.933594 60.464844 Z M 168.34375 60.464844 "/>
<path style=" stroke:none;fill-rule:nonzero;fill:rgb(91.372549%,30.196078%,37.254902%);fill-opacity:1;" d="M 147.140625 50.332031 C 147.140625 55.5625 142.898438 59.753906 137.730469 59.753906 C 132.566406 59.753906 128.324219 55.507812 128.324219 50.332031 C 128.324219 45.15625 132.566406 40.90625 137.730469 40.90625 C 142.898438 40.90625 147.140625 45.101562 147.140625 50.332031 Z M 147.140625 50.332031 "/>
<path style=" stroke:none;fill-rule:nonzero;fill:url(#linear0);" d="M 118.863281 53.925781 C 124.628906 49.40625 128.324219 42.433594 128.324219 34.535156 C 128.324219 26.636719 124.628906 19.664062 118.863281 15.144531 C 114.675781 11.875 109.457031 9.914062 103.746094 9.914062 C 90.152344 9.914062 79.171875 20.917969 79.171875 34.535156 C 79.171875 48.152344 90.152344 59.15625 103.746094 59.15625 C 109.457031 59.15625 114.675781 57.195312 118.863281 53.925781 "/>
<path style=" stroke:none;fill-rule:nonzero;fill:url(#linear1);" d="M 54.753906 32.847656 L 54.753906 2.398438 C 47.957031 2.398438 42.03125 5.992188 38.714844 11.382812 C 36.105469 10.402344 33.222656 9.859375 30.285156 9.859375 C 16.691406 9.859375 5.710938 20.863281 5.710938 34.480469 C 5.710938 48.097656 16.691406 59.101562 30.285156 59.101562 C 35.996094 59.101562 41.214844 57.140625 45.402344 53.871094 C 51.167969 49.351562 54.863281 42.378906 54.863281 34.480469 C 54.808594 33.9375 54.808594 33.390625 54.753906 32.847656 Z M 54.753906 32.847656 "/>
<path style=" stroke:none;fill-rule:nonzero;fill:url(#linear2);" d="M 66.828125 21.351562 C 61.660156 21.351562 57.472656 25.546875 57.472656 30.722656 L 57.472656 59.101562 C 67.859375 59.101562 76.34375 50.660156 76.34375 40.199219 L 76.34375 30.886719 C 76.289062 25.65625 72.046875 21.351562 66.828125 21.351562 Z M 66.828125 21.351562 "/>
<path style=" stroke:none;fill-rule:nonzero;fill:url(#linear3);" d="M 76.289062 11.875 C 76.289062 17.078125 72.078125 21.296875 66.882812 21.296875 C 61.6875 21.296875 57.472656 17.078125 57.472656 11.875 C 57.472656 6.671875 61.6875 2.453125 66.882812 2.453125 C 72.078125 2.453125 76.289062 6.671875 76.289062 11.875 Z M 76.289062 11.875 "/>
<path style=" stroke:none;fill-rule:nonzero;fill:url(#linear4);" d="M 66.882812 21.460938 C 61.605469 21.460938 57.257812 17.160156 57.257812 11.820312 C 57.257812 6.480469 61.605469 2.234375 66.882812 2.234375 C 72.15625 2.234375 76.503906 6.535156 76.503906 11.875 C 76.503906 17.214844 72.210938 21.460938 66.882812 21.460938 Z M 66.882812 2.613281 C 61.769531 2.613281 57.636719 6.753906 57.636719 11.875 C 57.636719 16.996094 61.769531 21.136719 66.882812 21.136719 C 71.992188 21.136719 76.125 16.996094 76.125 11.875 C 76.125 6.753906 71.992188 2.613281 66.882812 2.613281 Z M 66.882812 2.613281 "/>
</g>
</svg>
